<svg xmlns="http://www.w3.org/2000/svg" width="1400" height="900" viewBox="0 0 1400 900" role="img" aria-labelledby="title desc">
  <title id="title">Current-state dashboard placeholder</title>
  <desc id="desc">A grey enterprise dashboard with annotation callouts marking prioritisation, hidden risk, and repeated actions.</desc>
  <rect width="1400" height="900" fill="#eef2f7"/>
  <rect x="70" y="75" width="1260" height="750" rx="28" fill="#ffffff" stroke="#cdd8e5" stroke-width="3"/>
  <rect x="70" y="75" width="210" height="750" rx="28" fill="#f7f9fc"/>
  <rect x="280" y="75" width="1050" height="82" fill="#ffffff"/>
  <line x1="280" y1="157" x2="1330" y2="157" stroke="#dfe6ee"/>
  <g fill="#b7c3d1">
    <rect x="105" y="115" width="125" height="16" rx="8"/>
    <rect x="105" y="200" width="115" height="14" rx="7"/>
    <rect x="105" y="252" width="135" height="14" rx="7"/>
    <rect x="105" y="304" width="90" height="14" rx="7"/>
    <rect x="105" y="356" width="120" height="14" rx="7"/>
  </g>
  <rect x="320" y="105" width="300" height="22" rx="11" fill="#9aa9ba"/>
  <rect x="935" y="101" width="250" height="34" rx="10" fill="#f2f5f9" stroke="#dce4ed"/>
  <g transform="translate(320 200)">
    <rect width="300" height="140" rx="14" fill="#f9fbfd" stroke="#dce4ed"/>
    <rect x="22" y="23" width="130" height="14" rx="7" fill="#a5b3c3"/>
    <rect x="22" y="55" width="85" height="29" rx="8" fill="#c2ccd7"/>
    <circle cx="238" cy="70" r="38" fill="none" stroke="#c9d3de" stroke-width="16"/>
    <rect x="22" y="106" width="230" height="10" rx="5" fill="#d2dae3"/>
  </g>
  <g transform="translate(646 200)">
    <rect width="300" height="140" rx="14" fill="#f9fbfd" stroke="#dce4ed"/>
    <rect x="22" y="23" width="142" height="14" rx="7" fill="#a5b3c3"/>
    <rect x="22" y="55" width="75" height="29" rx="8" fill="#c2ccd7"/>
    <circle cx="238" cy="70" r="38" fill="none" stroke="#c9d3de" stroke-width="16"/>
    <rect x="22" y="106" width="230" height="10" rx="5" fill="#d2dae3"/>
  </g>
  <g transform="translate(972 200)">
    <rect width="300" height="140" rx="14" fill="#f9fbfd" stroke="#dce4ed"/>
    <rect x="22" y="23" width="122" height="14" rx="7" fill="#a5b3c3"/>
    <rect x="22" y="55" width="72" height="29" rx="8" fill="#c2ccd7"/>
    <circle cx="238" cy="70" r="38" fill="none" stroke="#c9d3de" stroke-width="16"/>
    <rect x="22" y="106" width="230" height="10" rx="5" fill="#d2dae3"/>
  </g>
  <rect x="320" y="380" width="952" height="350" rx="16" fill="#fafbfd" stroke="#dce4ed"/>
  <g fill="#d2dae3">
    <rect x="350" y="415" width="860" height="24" rx="8"/>
    <rect x="350" y="465" width="860" height="38" rx="8"/>
    <rect x="350" y="520" width="860" height="38" rx="8"/>
    <rect x="350" y="575" width="860" height="38" rx="8"/>
    <rect x="350" y="630" width="860" height="38" rx="8"/>
  </g>

  <g font-family="Arial, sans-serif">
    <line x1="260" y1="265" x2="385" y2="285" stroke="#0067d2" stroke-width="4"/>
    <circle cx="240" cy="262" r="20" fill="#0067d2"/>
    <text x="240" y="269" text-anchor="middle" font-size="20" font-weight="700" fill="#fff">1</text>
    <rect x="68" y="215" width="235" height="74" rx="14" fill="#ffffff" stroke="#b7d8fb"/>
    <text x="90" y="245" font-size="17" font-weight="700" fill="#0d2340">Weak prioritisation</text>
    <text x="90" y="270" font-size="14" fill="#5e7186">Counts do not show urgency.</text>

    <line x1="1140" y1="355" x2="1040" y2="485" stroke="#0067d2" stroke-width="4"/>
    <circle cx="1162" cy="337" r="20" fill="#0067d2"/>
    <text x="1162" y="344" text-anchor="middle" font-size="20" font-weight="700" fill="#fff">2</text>
    <rect x="1080" y="260" width="250" height="74" rx="14" fill="#ffffff" stroke="#b7d8fb"/>
    <text x="1102" y="290" font-size="17" font-weight="700" fill="#0d2340">Risk is buried</text>
    <text x="1102" y="315" font-size="14" fill="#5e7186">Policy context arrives too late.</text>

    <line x1="230" y1="650" x2="420" y2="610" stroke="#0067d2" stroke-width="4"/>
    <circle cx="210" cy="655" r="20" fill="#0067d2"/>
    <text x="210" y="662" text-anchor="middle" font-size="20" font-weight="700" fill="#fff">3</text>
    <rect x="68" y="680" width="270" height="74" rx="14" fill="#ffffff" stroke="#b7d8fb"/>
    <text x="90" y="710" font-size="17" font-weight="700" fill="#0d2340">Repeated actions</text>
    <text x="90" y="735" font-size="14" fill="#5e7186">Routine work requires extra steps.</text>
  </g>
</svg>
