<svg xmlns="http://www.w3.org/2000/svg" width="1600" height="900" viewBox="0 0 1600 900" role="img" aria-labelledby="title desc">
  <title id="title">Approval dashboard placeholder</title>
  <desc id="desc">A stylised enterprise approval dashboard placeholder with navigation, ageing summaries, filters, and report rows.</desc>
  <rect width="1600" height="900" fill="#f6f9fd"/>
  <rect x="0" y="0" width="240" height="900" fill="#ffffff"/>
  <rect x="240" y="0" width="1360" height="82" fill="#ffffff"/>
  <line x1="240" y1="82" x2="1600" y2="82" stroke="#dce6f1"/>
  <line x1="240" y1="0" x2="240" y2="900" stroke="#dce6f1"/>

  <circle cx="55" cy="43" r="22" fill="#0067d2"/>
  <text x="55" y="50" text-anchor="middle" font-family="Arial, sans-serif" font-size="18" font-weight="700" fill="#ffffff">GP</text>
  <text x="92" y="48" font-family="Arial, sans-serif" font-size="22" font-weight="700" fill="#0d2340">Approval Desk</text>

  <g font-family="Arial, sans-serif" font-size="17" fill="#5b6b7f">
    <rect x="24" y="118" width="192" height="48" rx="12" fill="#eaf4ff"/>
    <circle cx="48" cy="142" r="9" fill="#0067d2"/>
    <text x="70" y="148" fill="#0067d2" font-weight="700">Approvals</text>
    <circle cx="48" cy="205" r="8" fill="#a9b7c7"/>
    <text x="70" y="211">Reports</text>
    <circle cx="48" cy="268" r="8" fill="#a9b7c7"/>
    <text x="70" y="274">Policy</text>
    <circle cx="48" cy="331" r="8" fill="#a9b7c7"/>
    <text x="70" y="337">Analytics</text>
    <circle cx="48" cy="394" r="8" fill="#a9b7c7"/>
    <text x="70" y="400">Settings</text>
  </g>

  <text x="286" y="51" font-family="Arial, sans-serif" font-size="28" font-weight="700" fill="#0d2340">Approval Dashboard</text>
  <rect x="822" y="22" width="350" height="40" rx="12" fill="#f4f7fb" stroke="#d9e3ef"/>
  <text x="855" y="48" font-family="Arial, sans-serif" font-size="15" fill="#8392a5">Search employee, report or category</text>
  <rect x="1340" y="19" width="210" height="44" rx="12" fill="#0067d2"/>
  <text x="1445" y="47" text-anchor="middle" font-family="Arial, sans-serif" font-size="16" font-weight="700" fill="#ffffff">Create report</text>

  <g transform="translate(286 125)">
    <g>
      <rect width="285" height="175" rx="18" fill="#ffffff" stroke="#dce6f1"/>
      <text x="20" y="34" font-family="Arial, sans-serif" font-size="18" font-weight="700" fill="#172a45">Business expenses</text>
      <text x="20" y="70" font-family="Arial, sans-serif" font-size="34" font-weight="700" fill="#0d2340">128</text>
      <text x="88" y="68" font-family="Arial, sans-serif" font-size="15" fill="#6d7d90">pending</text>
      <circle cx="220" cy="87" r="43" fill="none" stroke="#d9e8f8" stroke-width="18"/>
      <circle cx="220" cy="87" r="43" fill="none" stroke="#0067d2" stroke-width="18" stroke-dasharray="110 270" transform="rotate(-90 220 87)"/>
      <circle cx="220" cy="87" r="43" fill="none" stroke="#f6a623" stroke-width="18" stroke-dasharray="55 270" stroke-dashoffset="-110" transform="rotate(-90 220 87)"/>
      <circle cx="220" cy="87" r="43" fill="none" stroke="#dd4747" stroke-width="18" stroke-dasharray="40 270" stroke-dashoffset="-165" transform="rotate(-90 220 87)"/>
      <circle cx="27" cy="135" r="5" fill="#0067d2"/><text x="40" y="140" font-family="Arial, sans-serif" font-size="13" fill="#5f7084">0–7 days</text>
      <circle cx="120" cy="135" r="5" fill="#f6a623"/><text x="133" y="140" font-family="Arial, sans-serif" font-size="13" fill="#5f7084">8–14 days</text>
      <circle cx="27" cy="157" r="5" fill="#dd4747"/><text x="40" y="162" font-family="Arial, sans-serif" font-size="13" fill="#5f7084">15+ days</text>
    </g>

    <g transform="translate(310 0)">
      <rect width="285" height="175" rx="18" fill="#ffffff" stroke="#dce6f1"/>
      <text x="20" y="34" font-family="Arial, sans-serif" font-size="18" font-weight="700" fill="#172a45">Employee advances</text>
      <text x="20" y="70" font-family="Arial, sans-serif" font-size="34" font-weight="700" fill="#0d2340">46</text>
      <text x="72" y="68" font-family="Arial, sans-serif" font-size="15" fill="#6d7d90">pending</text>
      <circle cx="220" cy="87" r="43" fill="none" stroke="#d9e8f8" stroke-width="18"/>
      <circle cx="220" cy="87" r="43" fill="none" stroke="#0067d2" stroke-width="18" stroke-dasharray="150 270" transform="rotate(-90 220 87)"/>
      <circle cx="220" cy="87" r="43" fill="none" stroke="#f6a623" stroke-width="18" stroke-dasharray="35 270" stroke-dashoffset="-150" transform="rotate(-90 220 87)"/>
      <circle cx="220" cy="87" r="43" fill="none" stroke="#dd4747" stroke-width="18" stroke-dasharray="25 270" stroke-dashoffset="-185" transform="rotate(-90 220 87)"/>
      <circle cx="27" cy="135" r="5" fill="#0067d2"/><text x="40" y="140" font-family="Arial, sans-serif" font-size="13" fill="#5f7084">0–7 days</text>
      <circle cx="120" cy="135" r="5" fill="#f6a623"/><text x="133" y="140" font-family="Arial, sans-serif" font-size="13" fill="#5f7084">8–14 days</text>
      <circle cx="27" cy="157" r="5" fill="#dd4747"/><text x="40" y="162" font-family="Arial, sans-serif" font-size="13" fill="#5f7084">15+ days</text>
    </g>

    <g transform="translate(620 0)">
      <rect width="285" height="175" rx="18" fill="#ffffff" stroke="#dce6f1"/>
      <text x="20" y="34" font-family="Arial, sans-serif" font-size="18" font-weight="700" fill="#172a45">Travel requests</text>
      <text x="20" y="70" font-family="Arial, sans-serif" font-size="34" font-weight="700" fill="#0d2340">32</text>
      <text x="72" y="68" font-family="Arial, sans-serif" font-size="15" fill="#6d7d90">pending</text>
      <circle cx="220" cy="87" r="43" fill="none" stroke="#d9e8f8" stroke-width="18"/>
      <circle cx="220" cy="87" r="43" fill="none" stroke="#0067d2" stroke-width="18" stroke-dasharray="125 270" transform="rotate(-90 220 87)"/>
      <circle cx="220" cy="87" r="43" fill="none" stroke="#f6a623" stroke-width="18" stroke-dasharray="65 270" stroke-dashoffset="-125" transform="rotate(-90 220 87)"/>
      <circle cx="220" cy="87" r="43" fill="none" stroke="#dd4747" stroke-width="18" stroke-dasharray="30 270" stroke-dashoffset="-190" transform="rotate(-90 220 87)"/>
      <circle cx="27" cy="135" r="5" fill="#0067d2"/><text x="40" y="140" font-family="Arial, sans-serif" font-size="13" fill="#5f7084">0–7 days</text>
      <circle cx="120" cy="135" r="5" fill="#f6a623"/><text x="133" y="140" font-family="Arial, sans-serif" font-size="13" fill="#5f7084">8–14 days</text>
      <circle cx="27" cy="157" r="5" fill="#dd4747"/><text x="40" y="162" font-family="Arial, sans-serif" font-size="13" fill="#5f7084">15+ days</text>
    </g>

    <g transform="translate(930 0)">
      <rect width="285" height="175" rx="18" fill="#ffffff" stroke="#dce6f1"/>
      <text x="20" y="34" font-family="Arial, sans-serif" font-size="18" font-weight="700" fill="#172a45">Travel settlements</text>
      <text x="20" y="70" font-family="Arial, sans-serif" font-size="34" font-weight="700" fill="#0d2340">18</text>
      <text x="72" y="68" font-family="Arial, sans-serif" font-size="15" fill="#6d7d90">pending</text>
      <circle cx="220" cy="87" r="43" fill="none" stroke="#d9e8f8" stroke-width="18"/>
      <circle cx="220" cy="87" r="43" fill="none" stroke="#0067d2" stroke-width="18" stroke-dasharray="96 270" transform="rotate(-90 220 87)"/>
      <circle cx="220" cy="87" r="43" fill="none" stroke="#f6a623" stroke-width="18" stroke-dasharray="45 270" stroke-dashoffset="-96" transform="rotate(-90 220 87)"/>
      <circle cx="220" cy="87" r="43" fill="none" stroke="#dd4747" stroke-width="18" stroke-dasharray="70 270" stroke-dashoffset="-141" transform="rotate(-90 220 87)"/>
      <circle cx="27" cy="135" r="5" fill="#0067d2"/><text x="40" y="140" font-family="Arial, sans-serif" font-size="13" fill="#5f7084">0–7 days</text>
      <circle cx="120" cy="135" r="5" fill="#f6a623"/><text x="133" y="140" font-family="Arial, sans-serif" font-size="13" fill="#5f7084">8–14 days</text>
      <circle cx="27" cy="157" r="5" fill="#dd4747"/><text x="40" y="162" font-family="Arial, sans-serif" font-size="13" fill="#5f7084">15+ days</text>
    </g>
  </g>

  <g transform="translate(286 338)">
    <rect width="1215" height="485" rx="20" fill="#ffffff" stroke="#dce6f1"/>
    <text x="24" y="43" font-family="Arial, sans-serif" font-size="21" font-weight="700" fill="#172a45">Business expenses</text>
    <text x="212" y="43" font-family="Arial, sans-serif" font-size="15" fill="#6d7d90">128 reports</text>
    <rect x="1008" y="18" width="178" height="42" rx="11" fill="#0067d2"/>
    <text x="1097" y="44" text-anchor="middle" font-family="Arial, sans-serif" font-size="15" font-weight="700" fill="#ffffff">Bulk approve</text>

    <rect x="20" y="78" width="1175" height="48" rx="10" fill="#f6f9fd"/>
    <g font-family="Arial, sans-serif" font-size="13" font-weight="700" fill="#53657a">
      <text x="57" y="108">Employee</text>
      <text x="272" y="108">Report details</text>
      <text x="592" y="108">Amount</text>
      <text x="722" y="108">Submitted</text>
      <text x="858" y="108">Ageing</text>
      <text x="976" y="108">Policy</text>
      <text x="1112" y="108">Action</text>
    </g>

    <g font-family="Arial, sans-serif" font-size="14">
      <g transform="translate(0 132)">
        <line x1="20" y1="61" x2="1195" y2="61" stroke="#e6edf5"/>
        <rect x="31" y="22" width="18" height="18" rx="4" fill="#fff" stroke="#aebdcd"/>
        <text x="57" y="37" fill="#172a45" font-weight="700">Priya Sharma</text>
        <text x="272" y="37" fill="#53657a">Client meeting · Singapore</text>
        <text x="592" y="37" fill="#172a45" font-weight="700">SGD 1,240</text>
        <text x="722" y="37" fill="#53657a">12 Oct 2024</text>
        <rect x="850" y="17" width="92" height="26" rx="13" fill="#fff0f0"/><text x="896" y="35" text-anchor="middle" fill="#c43d3d" font-weight="700">15+ days</text>
        <rect x="965" y="17" width="105" height="26" rx="13" fill="#fff0f0"/><text x="1017" y="35" text-anchor="middle" fill="#c43d3d" font-weight="700">Policy breach</text>
        <rect x="1100" y="17" width="74" height="26" rx="13" fill="#eef6ff"/><text x="1137" y="35" text-anchor="middle" fill="#0067d2" font-weight="700">Review</text>
      </g>

      <g transform="translate(0 201)">
        <line x1="20" y1="61" x2="1195" y2="61" stroke="#e6edf5"/>
        <rect x="31" y="22" width="18" height="18" rx="4" fill="#fff" stroke="#aebdcd"/>
        <text x="57" y="37" fill="#172a45" font-weight="700">Rahul Mehta</text>
        <text x="272" y="37" fill="#53657a">Team offsite · Mumbai</text>
        <text x="592" y="37" fill="#172a45" font-weight="700">INR 18,500</text>
        <text x="722" y="37" fill="#53657a">15 Oct 2024</text>
        <rect x="850" y="17" width="92" height="26" rx="13" fill="#fff7e8"/><text x="896" y="35" text-anchor="middle" fill="#ae6500" font-weight="700">8–14 days</text>
        <rect x="965" y="17" width="105" height="26" rx="13" fill="#ecfbf5"/><text x="1017" y="35" text-anchor="middle" fill="#0b8f65" font-weight="700">Compliant</text>
        <rect x="1100" y="17" width="74" height="26" rx="13" fill="#ecfbf5"/><text x="1137" y="35" text-anchor="middle" fill="#0b8f65" font-weight="700">Approve</text>
      </g>

      <g transform="translate(0 270)">
        <line x1="20" y1="61" x2="1195" y2="61" stroke="#e6edf5"/>
        <rect x="31" y="22" width="18" height="18" rx="4" fill="#fff" stroke="#aebdcd"/>
        <text x="57" y="37" fill="#172a45" font-weight="700">Anita Desai</text>
        <text x="272" y="37" fill="#53657a">Product conference</text>
        <text x="592" y="37" fill="#172a45" font-weight="700">USD 650</text>
        <text x="722" y="37" fill="#53657a">16 Oct 2024</text>
        <rect x="850" y="17" width="92" height="26" rx="13" fill="#eef6ff"/><text x="896" y="35" text-anchor="middle" fill="#0067d2" font-weight="700">0–7 days</text>
        <rect x="965" y="17" width="105" height="26" rx="13" fill="#ecfbf5"/><text x="1017" y="35" text-anchor="middle" fill="#0b8f65" font-weight="700">Compliant</text>
        <rect x="1100" y="17" width="74" height="26" rx="13" fill="#ecfbf5"/><text x="1137" y="35" text-anchor="middle" fill="#0b8f65" font-weight="700">Approve</text>
      </g>

      <g transform="translate(0 339)">
        <line x1="20" y1="61" x2="1195" y2="61" stroke="#e6edf5"/>
        <rect x="31" y="22" width="18" height="18" rx="4" fill="#fff" stroke="#aebdcd"/>
        <text x="57" y="37" fill="#172a45" font-weight="700">Vikram Rao</text>
        <text x="272" y="37" fill="#53657a">Client visit · Delhi</text>
        <text x="592" y="37" fill="#172a45" font-weight="700">INR 9,200</text>
        <text x="722" y="37" fill="#53657a">17 Oct 2024</text>
        <rect x="850" y="17" width="92" height="26" rx="13" fill="#eef6ff"/><text x="896" y="35" text-anchor="middle" fill="#0067d2" font-weight="700">0–7 days</text>
        <rect x="965" y="17" width="105" height="26" rx="13" fill="#ecfbf5"/><text x="1017" y="35" text-anchor="middle" fill="#0b8f65" font-weight="700">Compliant</text>
        <rect x="1100" y="17" width="74" height="26" rx="13" fill="#ecfbf5"/><text x="1137" y="35" text-anchor="middle" fill="#0b8f65" font-weight="700">Approve</text>
      </g>
    </g>
  </g>
</svg>
